<mxfile host="app.diagrams.net" agent="Mozilla/5.0 (Macintosh; Intel Mac OS X 10_15_7) AppleWebKit/537.36 (KHTML, like Gecko) Chrome/131.0.0.0 Safari/537.36" version="26.0.10">
  <diagram name="Page-1" id="VKVC8MERzojL9QiGwEVo">
    <mxGraphModel dx="1422" dy="762" grid="1" gridSize="10" guides="1" tooltips="1" connect="1" arrows="1" fold="1" page="1" pageScale="1" pageWidth="850" pageHeight="1100" math="0" shadow="0">
      <root>
        <mxCell id="0" />
        <mxCell id="1" parent="0" />
        <mxCell id="pxAhOV4CuCzxhw5m5lg4-1" value="" style="whiteSpace=wrap;html=1;aspect=fixed;strokeColor=light-dark(#009900,#FFFFFF);strokeWidth=3;" vertex="1" parent="1">
          <mxGeometry x="150" y="260" width="390" height="390" as="geometry" />
        </mxCell>
        <mxCell id="pxAhOV4CuCzxhw5m5lg4-2" value="" style="endArrow=none;html=1;rounded=0;strokeColor=light-dark(#009900,#FFFFFF);strokeWidth=3;" edge="1" parent="1">
          <mxGeometry width="50" height="50" relative="1" as="geometry">
            <mxPoint x="20" y="150" as="sourcePoint" />
            <mxPoint x="80" y="150" as="targetPoint" />
          </mxGeometry>
        </mxCell>
        <mxCell id="pxAhOV4CuCzxhw5m5lg4-3" value="Old Kitchen" style="text;html=1;align=center;verticalAlign=middle;whiteSpace=wrap;rounded=0;" vertex="1" parent="1">
          <mxGeometry y="160" width="100" height="20" as="geometry" />
        </mxCell>
        <mxCell id="pxAhOV4CuCzxhw5m5lg4-4" value="" style="endArrow=none;html=1;rounded=0;strokeColor=#000099;strokeWidth=3;" edge="1" parent="1">
          <mxGeometry width="50" height="50" relative="1" as="geometry">
            <mxPoint x="430" y="520" as="sourcePoint" />
            <mxPoint x="430" y="430" as="targetPoint" />
          </mxGeometry>
        </mxCell>
        <mxCell id="pxAhOV4CuCzxhw5m5lg4-6" value="" style="endArrow=none;html=1;rounded=0;strokeColor=#000099;strokeWidth=3;exitX=0.99;exitY=0.328;exitDx=0;exitDy=0;exitPerimeter=0;" edge="1" parent="1">
          <mxGeometry width="50" height="50" relative="1" as="geometry">
            <mxPoint x="508" y="430" as="sourcePoint" />
            <mxPoint x="432" y="432" as="targetPoint" />
          </mxGeometry>
        </mxCell>
        <mxCell id="pxAhOV4CuCzxhw5m5lg4-7" value="" style="endArrow=none;html=1;rounded=0;strokeColor=#000099;strokeWidth=3;exitX=0.99;exitY=0.328;exitDx=0;exitDy=0;exitPerimeter=0;" edge="1" parent="1">
          <mxGeometry width="50" height="50" relative="1" as="geometry">
            <mxPoint x="506.0999999999999" y="360.00000000000006" as="sourcePoint" />
            <mxPoint x="430" y="362.08" as="targetPoint" />
          </mxGeometry>
        </mxCell>
        <mxCell id="pxAhOV4CuCzxhw5m5lg4-8" value="" style="endArrow=none;html=1;rounded=0;strokeColor=#000099;strokeWidth=3;exitX=0.99;exitY=0.659;exitDx=0;exitDy=0;exitPerimeter=0;" edge="1" parent="1">
          <mxGeometry width="50" height="50" relative="1" as="geometry">
            <mxPoint x="538.0999999999999" y="514.01" as="sourcePoint" />
            <mxPoint x="430" y="519" as="targetPoint" />
          </mxGeometry>
        </mxCell>
        <mxCell id="pxAhOV4CuCzxhw5m5lg4-9" value="" style="endArrow=none;html=1;rounded=0;entryX=0.726;entryY=-0.01;entryDx=0;entryDy=0;entryPerimeter=0;strokeColor=#000099;strokeWidth=3;" edge="1" parent="1">
          <mxGeometry width="50" height="50" relative="1" as="geometry">
            <mxPoint x="429" y="374" as="sourcePoint" />
            <mxPoint x="429.1399999999999" y="260.1" as="targetPoint" />
          </mxGeometry>
        </mxCell>
        <mxCell id="pxAhOV4CuCzxhw5m5lg4-16" value="" style="endArrow=none;html=1;rounded=0;strokeWidth=3;" edge="1" parent="1">
          <mxGeometry width="50" height="50" relative="1" as="geometry">
            <mxPoint x="430" y="370" as="sourcePoint" />
            <mxPoint x="430" y="440" as="targetPoint" />
          </mxGeometry>
        </mxCell>
        <mxCell id="pxAhOV4CuCzxhw5m5lg4-17" value="" style="endArrow=none;html=1;rounded=0;strokeWidth=3;strokeColor=#FF0000;" edge="1" parent="1">
          <mxGeometry width="50" height="50" relative="1" as="geometry">
            <mxPoint x="540" y="260" as="sourcePoint" />
            <mxPoint x="670" y="260" as="targetPoint" />
          </mxGeometry>
        </mxCell>
        <mxCell id="pxAhOV4CuCzxhw5m5lg4-18" value="" style="endArrow=none;html=1;rounded=0;strokeWidth=3;strokeColor=#FF0000;" edge="1" parent="1">
          <mxGeometry width="50" height="50" relative="1" as="geometry">
            <mxPoint x="540" y="600" as="sourcePoint" />
            <mxPoint x="560" y="600" as="targetPoint" />
          </mxGeometry>
        </mxCell>
        <mxCell id="pxAhOV4CuCzxhw5m5lg4-19" value="" style="endArrow=none;html=1;rounded=0;strokeWidth=3;strokeColor=#FF0000;" edge="1" parent="1">
          <mxGeometry width="50" height="50" relative="1" as="geometry">
            <mxPoint x="670" y="260" as="sourcePoint" />
            <mxPoint x="670" y="600" as="targetPoint" />
          </mxGeometry>
        </mxCell>
        <mxCell id="pxAhOV4CuCzxhw5m5lg4-20" value="" style="endArrow=none;html=1;rounded=0;strokeWidth=3;strokeColor=#FF0000;" edge="1" parent="1">
          <mxGeometry width="50" height="50" relative="1" as="geometry">
            <mxPoint x="540" y="360" as="sourcePoint" />
            <mxPoint x="620" y="360" as="targetPoint" />
          </mxGeometry>
        </mxCell>
        <mxCell id="pxAhOV4CuCzxhw5m5lg4-21" value="" style="endArrow=none;html=1;rounded=0;strokeWidth=3;strokeColor=#FF0000;" edge="1" parent="1">
          <mxGeometry width="50" height="50" relative="1" as="geometry">
            <mxPoint x="543" y="404" as="sourcePoint" />
            <mxPoint x="543" y="514" as="targetPoint" />
          </mxGeometry>
        </mxCell>
        <mxCell id="pxAhOV4CuCzxhw5m5lg4-22" value="" style="endArrow=none;html=1;rounded=0;strokeWidth=3;strokeColor=#FF0000;" edge="1" parent="1">
          <mxGeometry width="50" height="50" relative="1" as="geometry">
            <mxPoint x="514" y="373" as="sourcePoint" />
            <mxPoint x="544" y="403" as="targetPoint" />
          </mxGeometry>
        </mxCell>
        <mxCell id="pxAhOV4CuCzxhw5m5lg4-23" value="" style="endArrow=none;html=1;rounded=0;strokeWidth=3;strokeColor=#FF0000;" edge="1" parent="1">
          <mxGeometry width="50" height="50" relative="1" as="geometry">
            <mxPoint x="620" y="360" as="sourcePoint" />
            <mxPoint x="650" y="340" as="targetPoint" />
          </mxGeometry>
        </mxCell>
        <mxCell id="pxAhOV4CuCzxhw5m5lg4-24" value="" style="endArrow=none;html=1;rounded=0;strokeWidth=3;strokeColor=#FF0000;" edge="1" parent="1">
          <mxGeometry width="50" height="50" relative="1" as="geometry">
            <mxPoint x="620" y="600" as="sourcePoint" />
            <mxPoint x="670" y="600" as="targetPoint" />
          </mxGeometry>
        </mxCell>
        <mxCell id="pxAhOV4CuCzxhw5m5lg4-27" value="back door" style="shape=process;whiteSpace=wrap;html=1;backgroundOutline=1;strokeWidth=2;" vertex="1" parent="1">
          <mxGeometry x="490" y="700" width="40" height="40" as="geometry" />
        </mxCell>
        <mxCell id="pxAhOV4CuCzxhw5m5lg4-29" value="washer/dryer" style="rounded=1;whiteSpace=wrap;html=1;strokeWidth=2;rotation=90;" vertex="1" parent="1">
          <mxGeometry x="590" y="420" width="110" height="50" as="geometry" />
        </mxCell>
        <mxCell id="pxAhOV4CuCzxhw5m5lg4-31" value="new backdoor" style="shape=process;whiteSpace=wrap;html=1;backgroundOutline=1;strokeWidth=2;" vertex="1" parent="1">
          <mxGeometry x="560" y="570" width="60" height="30" as="geometry" />
        </mxCell>
        <mxCell id="pxAhOV4CuCzxhw5m5lg4-32" value="newish toilet" style="text;html=1;align=center;verticalAlign=middle;whiteSpace=wrap;rounded=0;" vertex="1" parent="1">
          <mxGeometry x="570" y="280" width="60" height="30" as="geometry" />
        </mxCell>
        <mxCell id="pxAhOV4CuCzxhw5m5lg4-33" value="shower" style="text;html=1;align=center;verticalAlign=middle;whiteSpace=wrap;rounded=0;" vertex="1" parent="1">
          <mxGeometry x="450" y="270" width="60" height="30" as="geometry" />
        </mxCell>
        <mxCell id="pxAhOV4CuCzxhw5m5lg4-35" value="sink" style="text;html=1;align=center;verticalAlign=middle;whiteSpace=wrap;rounded=0;rotation=90;" vertex="1" parent="1">
          <mxGeometry x="410" y="380" width="60" height="30" as="geometry" />
        </mxCell>
        <mxCell id="pxAhOV4CuCzxhw5m5lg4-36" value="toilet" style="text;html=1;align=center;verticalAlign=middle;whiteSpace=wrap;rounded=0;" vertex="1" parent="1">
          <mxGeometry x="450" y="480" width="60" height="30" as="geometry" />
        </mxCell>
        <mxCell id="pxAhOV4CuCzxhw5m5lg4-37" value="new bathroom door" style="text;html=1;align=center;verticalAlign=middle;whiteSpace=wrap;rounded=0;" vertex="1" parent="1">
          <mxGeometry x="490" y="350" width="80" height="60" as="geometry" />
        </mxCell>
        <mxCell id="pxAhOV4CuCzxhw5m5lg4-39" value="sink" style="text;html=1;align=center;verticalAlign=middle;whiteSpace=wrap;rounded=0;" vertex="1" parent="1">
          <mxGeometry x="270" y="260" width="60" height="30" as="geometry" />
        </mxCell>
        <mxCell id="pxAhOV4CuCzxhw5m5lg4-40" value="Stove" style="text;html=1;align=center;verticalAlign=middle;whiteSpace=wrap;rounded=0;" vertex="1" parent="1">
          <mxGeometry x="350" y="260" width="60" height="30" as="geometry" />
        </mxCell>
        <mxCell id="pxAhOV4CuCzxhw5m5lg4-41" value="cupboard" style="text;html=1;align=center;verticalAlign=middle;whiteSpace=wrap;rounded=0;rotation=-90;" vertex="1" parent="1">
          <mxGeometry x="140" y="330" width="60" height="30" as="geometry" />
        </mxCell>
        <mxCell id="pxAhOV4CuCzxhw5m5lg4-42" value="cupboard" style="text;html=1;align=center;verticalAlign=middle;whiteSpace=wrap;rounded=0;rotation=90;" vertex="1" parent="1">
          <mxGeometry x="380" y="400" width="60" height="30" as="geometry" />
        </mxCell>
        <mxCell id="pxAhOV4CuCzxhw5m5lg4-43" value="cupboard" style="text;html=1;align=center;verticalAlign=middle;whiteSpace=wrap;rounded=0;rotation=1;" vertex="1" parent="1">
          <mxGeometry x="200" y="260" width="60" height="30" as="geometry" />
        </mxCell>
        <mxCell id="pxAhOV4CuCzxhw5m5lg4-44" value="dining table" style="ellipse;whiteSpace=wrap;html=1;aspect=fixed;" vertex="1" parent="1">
          <mxGeometry x="260" y="550" width="80" height="80" as="geometry" />
        </mxCell>
        <mxCell id="pxAhOV4CuCzxhw5m5lg4-45" value="kitchen island/coffee bar - cupboard above" style="rounded=0;whiteSpace=wrap;html=1;" vertex="1" parent="1">
          <mxGeometry x="150" y="430" width="120" height="60" as="geometry" />
        </mxCell>
        <mxCell id="pxAhOV4CuCzxhw5m5lg4-46" value="fridge" style="rounded=0;whiteSpace=wrap;html=1;rotation=90;" vertex="1" parent="1">
          <mxGeometry x="480" y="590" width="60" height="60" as="geometry" />
        </mxCell>
        <mxCell id="pxAhOV4CuCzxhw5m5lg4-48" value="" style="endArrow=none;html=1;rounded=0;strokeColor=#B20000;strokeWidth=3;fillColor=#e51400;" edge="1" parent="1">
          <mxGeometry width="50" height="50" relative="1" as="geometry">
            <mxPoint x="20" y="190" as="sourcePoint" />
            <mxPoint x="80" y="190" as="targetPoint" />
          </mxGeometry>
        </mxCell>
        <mxCell id="pxAhOV4CuCzxhw5m5lg4-49" value="new addition" style="text;html=1;align=center;verticalAlign=middle;whiteSpace=wrap;rounded=0;" vertex="1" parent="1">
          <mxGeometry x="20" y="200" width="60" height="30" as="geometry" />
        </mxCell>
      </root>
    </mxGraphModel>
  </diagram>
</mxfile>
